#!OML:ASF X:\für Bonn\!DataBase\2005_08_12_Daniel\c3d\Daniel.ASF
:FULLY-SPECIFIED
:DEGREES
65
root 0.694994 9.6899 -0.737652 56.3362 -88.6435 -81.678
lowerback 51.667 -3.07839 4.64668
upperback 3.48901 -2.78823 -2.21441
thorax -17.4413 -1.91221 -3.12042
lowerneck 9.70981 2.01362 -0.571276
upperneck -1.57496 2.55355 -0.51484
head -2.1661 1.27679 -0.18741
rclavicle -5.66536e-015 -1.74931e-014
rhumerus 66.8882 -0.289929 -101.515
rradius 9.27151
rwrist 65.5584
rhand -20.5895 11.3914
rfingers 7.12502
rthumb 5.77073 -18.51
lclavicle -5.66536e-015 -1.74931e-014
lhumerus 69.6377 9.94705 118.882
lradius 9.46091
lwrist -93.0607
lhand -19.2691 -0.0589427
lfingers 7.12502
lthumb 7.04539 29.8038
rfemur -30.9707 -50.4915 -33.1708
rtibia 128.723
rfoot 1.49071 55.3109
rtoes 0.035529
lfemur -40.3664 46.0361 25.7603
ltibia 127.836
lfoot -12.8049 -55.4133
ltoes 9.89789
66
root 0.693482 9.50371 -0.735313 59.7547 -88.5738 -85.6098
lowerback 52.3276 -3.10558 4.70175
upperback 3.52895 -2.78641 -2.17771
thorax -17.48 -1.92512 -3.08913
lowerneck 9.72203 2.04867 -0.683263
upperneck -1.65162 2.58886 -0.480953
head -2.19599 1.2948 -0.159947
rclavicle 5.46658e-015 9.14409e-015
rhumerus 67.1338 -0.235007 -101.571
rradius 9.28336
rwrist 65.7787
rhand -20.6906 11.5121
rfingers 7.12502
rthumb 5.67309 -18.392
lclavicle 5.46658e-015 9.14409e-015
lhumerus 69.751 10.1439 119.203
lradius 9.6795
lwrist -93.2413
lhand -19.227 -0.177747
lfingers 7.12502
lthumb 7.08606 29.6836
rfemur -28.9794 -52.3313 -37.4474
rtibia 130.267
rfoot 2.27521 57.278
rtoes 0.0637834
lfemur -39.6242 47.9124 28.808
ltibia 129.387
lfoot -11.6312 -57.0693
ltoes 10.1767
67
root 0.691604 9.31887 -0.734443 62.7587 -88.5076 -89.0839
lowerback 52.9144 -3.13089 4.75334
upperback 3.59374 -2.79288 -2.16448
thorax -17.4758 -1.9412 -3.08044
lowerneck 9.70259 2.08031 -0.756068
upperneck -1.72917 2.62557 -0.433768
head -2.22009 1.31291 -0.134654
rclavicle -1.31198e-014 7.15625e-015
rhumerus 67.4952 -0.205302 -101.657
rradius 9.15414
rwrist 65.9084
rhand -20.7909 11.6098
rfingers 7.12502
rthumb 5.57625 -18.2969
lclavicle -1.31198e-014 7.15625e-015
lhumerus 69.9227 10.277 119.504
lradius 9.84653
lwrist -93.394
lhand -19.2246 -0.328033
lfingers 7.12502
lthumb 7.0883 29.5333
rfemur -26.6311 -54.131 -42.176
rtibia 131.799
rfoot 3.08688 59.291
rtoes 0.150314
lfemur -38.6811 49.8496 32.1082
ltibia 130.911
lfoot -10.6086 -58.7464
ltoes 10.3076
68
root 0.692203 9.13575 -0.73399 65.5016 -88.4383 -92.2761
lowerback 53.5324 -3.13966 4.77848
upperback 3.61399 -2.78274 -2.12333
thorax -17.5228 -1.94863 -3.03538
lowerneck 9.75908 2.11951 -0.896764
upperneck -1.8319 2.66415 -0.360069
head -2.26813 1.33167 -0.0904889
rclavicle 8.54774e-015 1.82882e-014
rhumerus 67.8347 -0.171529 -101.708
rradius 8.96827
rwrist 66.0068
rhand -20.8375 11.7203
rfingers 7.12502
rthumb 5.53126 -18.1875
lclavicle 8.54774e-015 1.82882e-014
lhumerus 70.0978 10.4289 119.839
lradius 9.92361
lwrist -93.5815
lhand -19.3319 -0.411801
lfingers 7.12502
lthumb 6.98482 29.453
rfemur -23.9325 -55.8392 -47.3084
rtibia 133.321
rfoot 3.27134 61.2812
rtoes 0.0787051
lfemur -37.6379 51.7154 35.5644
ltibia 132.419
lfoot -9.46311 -60.3591
ltoes 10.3764
69
root 0.694457 8.95619 -0.734036 67.6256 -88.3878 -94.8177
lowerback 54.1201 -3.15309 4.81
upperback 3.63807 -2.78166 -2.11319
thorax -17.5603 -1.96009 -3.02497
lowerneck 9.84091 2.13604 -0.975021
upperneck -1.96678 2.67808 -0.321931
head -2.33027 1.339 -0.0676885
rclavicle -1.11319e-014 -1.78906e-014
rhumerus 68.1693 -0.137773 -101.798
rradius 8.82162
rwrist 66.0508
rhand -20.8504 11.8087
rfingers 7.12502
rthumb 5.51884 -18.0994
lclavicle -1.11319e-014 -1.78906e-014
lhumerus 70.304 10.5395 120.149
lradius 9.92251
lwrist -93.829
lhand -19.5721 -0.519666
lfingers 7.12502
lthumb 6.75287 29.3526
rfemur -20.9583 -57.3689 -52.7536
rtibia 134.802
rfoot 3.60218 63.1681
rtoes 0.0770058
lfemur -36.4953 53.5168 39.077
ltibia 133.883
lfoot -8.45104 -61.8461
ltoes 10.5436
70
root 0.696923 8.77848 -0.734701 69.8832 -88.3277 -97.4854
lowerback 54.6913 -3.15587 4.82961
upperback 3.67332 -2.77453 -2.09178
thorax -17.5768 -1.96874 -2.99963
lowerneck 9.87504 2.16451 -1.05656
upperneck -2.08128 2.70835 -0.281911
head -2.37706 1.35441 -0.0437587
rclavicle -4.87022e-015 -1.98785e-015
rhumerus 68.4968 -0.122879 -101.87
rradius 8.70003
rwrist 66.0278
rhand -20.7697 11.9278
rfingers 7.12502
rthumb 5.59674 -17.9782
lclavicle -4.87022e-015 -1.98785e-015
lhumerus 70.5516 10.6218 120.477
lradius 9.86345
lwrist -94.112
lhand -19.8926 -0.514459
lfingers 7.12502
lthumb 6.44352 29.3675
rfemur -17.6498 -58.7005 -58.5233
rtibia 136.259
rfoot 3.62896 65.018
rtoes 0.0529566
lfemur -35.1457 55.2493 42.8442
ltibia 135.323
lfoot -7.49366 -63.2975
ltoes 10.5139
71
root 0.699924 8.60549 -0.735148 70.7859 -88.3128 -98.763
lowerback 55.2193 -3.16102 4.83739
upperback 3.70168 -2.7806 -2.09094
thorax -17.5964 -1.98121 -2.98694
lowerneck 9.96136 2.18153 -1.13634
upperneck -2.21194 2.72298 -0.23301
head -2.43918 1.36172 -0.0172287
rclavicle 1.66979e-014 8.74653e-015
rhumerus 68.7799 -0.129917 -101.943
rradius 8.59853
rwrist 66.0695
rhand -20.6764 12.0296
rfingers 7.12502
rthumb 5.68677 -17.8741
lclavicle 1.66979e-014 8.74653e-015
lhumerus 70.7053 10.7113 120.795
lradius 9.86554
lwrist -94.4225
lhand -20.3 -0.58911
lfingers 7.12502
lthumb 6.05022 29.3045
rfemur -14.0051 -59.8137 -64.7082
rtibia 137.679
rfoot 3.30916 66.8341
rtoes -0.0683468
lfemur -33.7519 56.8802 46.554
ltibia 136.723
lfoot -6.9889 -64.6015
ltoes 10.3167
72
root 0.702751 8.43698 -0.736506 71.6053 -88.3119 -99.9566
lowerback 55.7495 -3.15073 4.79385
upperback 3.72837 -2.79636 -2.07242
thorax -17.6145 -1.995 -2.9255
lowerneck 10.0768 2.2157 -1.26777
upperneck -2.37385 2.75476 -0.159558
head -2.51885 1.37742 0.0246624
rclavicle -1.07344e-014 5.96354e-015
rhumerus 68.9973 -0.0995775 -102.011
rradius 8.5614
rwrist 66.1426
rhand -20.56 12.0801
rfingers 7.12502
rthumb 5.79918 -17.8205
lclavicle -1.07344e-014 5.96354e-015
lhumerus 70.8513 10.8899 121.101
lradius 9.9045
lwrist -94.7237
lhand -20.7276 -0.705205
lfingers 7.12502
lthumb 5.63735 29.1998
rfemur -10.1378 -60.6554 -71.0959
rtibia 139.057
rfoot 2.58 68.5497
rtoes -0.241008
lfemur -32.2254 58.3773 50.3538
ltibia 138.076
lfoot -6.55091 -65.8213
ltoes 10.2738
73
root 0.70624 8.2757 -0.737771 72.2549 -88.3089 -100.95
lowerback 56.2323 -3.16128 4.79348
upperback 3.76807 -2.81781 -2.07588
thorax -17.611 -2.01318 -2.90728
lowerneck 10.1946 2.24449 -1.38881
upperneck -2.56526 2.77924 -0.112412
head -2.60871 1.39059 0.0565452
rclavicle 1.23246e-014 1.55052e-014
rhumerus 69.2048 -0.0963877 -102.087
rradius 8.53412
rwrist 66.3452
rhand -20.4855 12.1505
rfingers 7.12502
rthumb 5.87113 -17.7482
lclavicle 1.23246e-014 1.55052e-014
lhumerus 70.9665 11.0741 121.387
lradius 9.97838
lwrist -95.0515
lhand -21.1153 -0.876467
lfingers 7.12502
lthumb 5.26307 29.0382
rfemur -6.35812 -61.2226 -77.3402
rtibia 140.379
rfoot 1.89161 70.1298
rtoes -0.27772
lfemur -30.5645 59.7544 54.2018
ltibia 139.369
lfoot -6.64331 -66.9277
ltoes 9.92767
74
root 0.709668 8.12179 -0.739434 73.2522 -88.3058 -102.259
lowerback 56.6785 -3.17585 4.82266
upperback 3.80776 -2.8311 -2.10342
thorax -17.6032 -2.02915 -2.93554
lowerneck 10.3394 2.26449 -1.52212
upperneck -2.75849 2.79348 0.00307537
head -2.70601 1.39631 0.112922
rclavicle -2.5842e-014 -2.66371e-014
rhumerus 69.3387 -0.161984 -102.169
rradius 8.57131
rwrist 66.6082
rhand -20.3826 12.1756
rfingers 7.12502
rthumb 5.97044 -17.7203
lclavicle -2.5842e-014 -2.66371e-014
lhumerus 70.9944 11.2484 121.644
lradius 10.1118
lwrist -95.3428
lhand -21.447 -1.17849
lfingers 7.12502
lthumb 4.94278 28.7439
rfemur -2.72345 -61.5642 -83.3492
rtibia 141.643
rfoot 0.669814 71.5455
rtoes -0.402183
lfemur -28.8259 61.0023 58.0667
ltibia 140.598
lfoot -6.80525 -67.9754
ltoes 9.71244
75
root 0.714451 7.97567 -0.741014 73.8147 -88.3047 -103.108
lowerback 57.1441 -3.19311 4.82898
upperback 3.81929 -2.85127 -2.10075
thorax -17.6276 -2.04625 -2.91447
lowerneck 10.4924 2.29397 -1.74416
upperneck -2.96904 2.80817 0.115638
head -2.81288 1.4036 0.183841
rclavicle 5.36719e-015 -1.94809e-014
rhumerus 69.4387 -0.170815 -102.222
rradius 8.58372
rwrist 66.9658
rhand -20.3622 12.1652
rfingers 7.12502
rthumb 5.99015 -17.7301
lclavicle 5.36719e-015 -1.94809e-014
lhumerus 70.8076 11.1541 120.857
lradius 10.2425
lwrist -94.5074
lhand -21.638 -1.30674
lfingers 7.12502
lthumb 4.75835 28.6198
rfemur 0.685696 -61.7164 -89.0273
rtibia 142.836
rfoot -0.900813 72.8312
rtoes -0.59912
lfemur -27.1039 62.1213 61.8448
ltibia 141.773
lfoot -7.10886 -68.8797
ltoes 9.33394
76
root 0.718752 7.83587 -0.742576 73.9199 -88.3283 -103.49
lowerback 57.5888 -3.22091 4.84033
upperback 3.84798 -2.89157 -2.13557
thorax -17.6314 -2.0717 -2.92924
lowerneck 10.7903 2.32174 -1.85217
upperneck -3.28396 2.82964 0.186119
head -2.98108 1.41472 0.218819
rclavicle 1.20265e-014 -8.34896e-015
rhumerus 69.596 -0.196472 -102.319
rradius 8.52579
rwrist 67.4262
rhand -20.433 12.1322
rfingers 7.12502
rthumb 5.92179 -17.7651
lclavicle 1.20265e-014 -8.34896e-015
lhumerus 70.7053 11.0924 120.297
lradius 10.3155
lwrist -94.0037
lhand -21.8004 -1.51273
lfingers 7.12502
lthumb 4.60147 28.4173
rfemur 3.8163 -61.667 -94.4155
rtibia 143.987
rfoot -2.99199 73.9995
rtoes -0.868988
lfemur -25.2833 63.1147 65.5837
ltibia 142.883
lfoot -7.8709 -69.7123
ltoes 9.02685
